# xmcd
#
# Track frame offsets:
#	150
#	13163
#	16098
#	29319
#	45050
#	53240
#	70055
#	85124
#	90689
#	105678
#	121833
#	129459
#	137253
#	207244
#
# Disc length: 3146 seconds
#
# Revision: 1
# Processed by: cddbd v1.5.1PL0 Copyright (c) Steve Scherf et al.
# Submitted via: audiograbber 1.80
#
DISCID=a60c480e
DTITLE=Bluesbueb - Super Tortas Gigantes
DYEAR=1900
DGENRE=
TTITLE0=Super Tortas Gigantes
TTITLE1=Was hät das söle?
TTITLE2=Fränzi Hänzi
TTITLE3=Smacks
TTITLE4=Herr Borer and Frau Schnorer
TTITLE5=Feiter
TTITLE6=S`Bletz is z`Tod
TTITLE7=Gagukack
TTITLE8=Ovobärn
TTITLE9=Goudfesche
TTITLE10=Tschiggenhorni
TTITLE11=Weiche Siech
TTITLE12=Groppesächser
TTITLE13=Daten-CD
EXTD=2004
EXTT0=
EXTT1=
EXTT2=
EXTT3=
EXTT4=
EXTT5=
EXTT6=
EXTT7=
EXTT8=
EXTT9=
EXTT10=
EXTT11=
EXTT12=
EXTT13=
PLAYORDER=
